<svg width="32" height="32" viewBox="0 0 32 32" fill="none" xmlns="http://www.w3.org/2000/svg">
<path d="M7.61905 0C3.41994 0 0 3.41994 0 7.61905V24.381C0 28.5801 3.41994 32 7.61905 32H24.381C28.5801 32 32 28.5801 32 24.381V7.61905C32 3.41994 28.5801 0 24.381 0H7.61905ZM6.85714 9.14286H25.1429C25.28 9.14286 25.4093 9.15833 25.5313 9.19643L18.0417 16.6786C16.914 17.8062 15.0785 17.8062 13.9509 16.6786L6.46875 9.19643C6.59065 9.15833 6.72 9.14286 6.85714 9.14286ZM5.3869 10.2783L11.1161 16L5.3869 21.7217C5.34881 21.5998 5.33333 21.4705 5.33333 21.3333V10.6667C5.33333 10.5295 5.34881 10.4002 5.3869 10.2783ZM26.6131 10.2783C26.6512 10.4002 26.6667 10.5295 26.6667 10.6667V21.3333C26.6667 21.4705 26.6512 21.5998 26.6131 21.7217L20.8765 16L26.6131 10.2783ZM12.1905 17.0744L12.869 17.7604C13.73 18.6214 14.8649 19.0476 15.9926 19.0476C17.1278 19.0476 18.2551 18.6214 19.1161 17.7604L19.8021 17.0744L25.5313 22.8036C25.4093 22.8417 25.28 22.8571 25.1429 22.8571H6.85714C6.72 22.8571 6.59065 22.8417 6.46875 22.8036L12.1905 17.0744Z" fill="#75A4FF"/>
</svg>
